<svg width="3333" height="1952" xmlns="http://www.w3.org/2000/svg" xmlns:xlink="http://www.w3.org/1999/xlink" xml:space="preserve" overflow="hidden"><g transform="translate(-534 -335)"><rect x="536.5" y="337.5" width="3328" height="1938" stroke="#FFFFFF" stroke-width="4.58333" stroke-miterlimit="8" fill="#FFFFFF"/><path d="M1255.5 708.5C1255.5 617.373 1329.37 543.5 1420.5 543.5 1511.63 543.5 1585.5 617.373 1585.5 708.5 1585.5 799.627 1511.63 873.5 1420.5 873.5 1329.37 873.5 1255.5 799.627 1255.5 708.5Z" stroke="#000000" stroke-width="20.625" stroke-miterlimit="8" fill="#FFFFFF" fill-rule="evenodd"/><text font-family="Arial,Arial_MSFontService,sans-serif" font-weight="400" font-size="220" transform="matrix(1 0 0 1 1350.29 789)">A</text><path d="M0 0 9.56545 1822.17" stroke="#000000" stroke-width="20.625" stroke-miterlimit="8" fill="none" fill-rule="evenodd" transform="matrix(-1 0 0 1 2206.07 453.5)"/><path d="M2817.5 708.5C2817.5 617.373 2891.37 543.5 2982.5 543.5 3073.63 543.5 3147.5 617.373 3147.5 708.5 3147.5 799.627 3073.63 873.5 2982.5 873.5 2891.37 873.5 2817.5 799.627 2817.5 708.5Z" stroke="#000000" stroke-width="20.625" stroke-miterlimit="8" fill="#FFFFFF" fill-rule="evenodd"/><text font-family="Arial,Arial_MSFontService,sans-serif" font-weight="400" font-size="220" transform="matrix(1 0 0 1 2912.21 789)">B</text><path d="M1000.5 1243.5C1000.5 1152.37 1074.37 1078.5 1165.5 1078.5 1256.63 1078.5 1330.5 1152.37 1330.5 1243.5 1330.5 1334.63 1256.63 1408.5 1165.5 1408.5 1074.37 1408.5 1000.5 1334.63 1000.5 1243.5Z" stroke="#000000" stroke-width="20.625" stroke-miterlimit="8" fill="#BBDD84" fill-rule="evenodd"/><path d="M1516.5 1243.5C1516.5 1152.37 1590.37 1078.5 1681.5 1078.5 1772.63 1078.5 1846.5 1152.37 1846.5 1243.5 1846.5 1334.63 1772.63 1408.5 1681.5 1408.5 1590.37 1408.5 1516.5 1334.63 1516.5 1243.5Z" stroke="#000000" stroke-width="20.625" stroke-miterlimit="8" fill="#C6B3D7" fill-rule="evenodd"/><path d="M2564.5 1234.5C2564.5 1143.37 2638.37 1069.5 2729.5 1069.5 2820.63 1069.5 2894.5 1143.37 2894.5 1234.5 2894.5 1325.63 2820.63 1399.5 2729.5 1399.5 2638.37 1399.5 2564.5 1325.63 2564.5 1234.5Z" stroke="#000000" stroke-width="20.625" stroke-miterlimit="8" fill="#B0CDE4" fill-rule="evenodd"/><path d="M3080.5 1234.5C3080.5 1143.37 3154.37 1069.5 3245.5 1069.5 3336.63 1069.5 3410.5 1143.37 3410.5 1234.5 3410.5 1325.63 3336.63 1399.5 3245.5 1399.5 3154.37 1399.5 3080.5 1325.63 3080.5 1234.5Z" stroke="#000000" stroke-width="20.625" stroke-miterlimit="8" fill="#FDFF92" fill-rule="evenodd"/><path d="M0 0 139.2 252.523" stroke="#000000" stroke-width="20.625" stroke-miterlimit="8" fill="none" fill-rule="evenodd" transform="matrix(-1 0 0 1 1420.7 873.5)"/><path d="M1420.5 873.5 1564.08 1126.02" stroke="#000000" stroke-width="20.625" stroke-miterlimit="8" fill="none" fill-rule="evenodd"/><path d="M0 0 139.2 252.523" stroke="#000000" stroke-width="20.625" stroke-miterlimit="8" fill="none" fill-rule="evenodd" transform="matrix(-1 0 0 1 2985.7 873.5)"/><path d="M2985.5 873.5 3129.08 1126.02" stroke="#000000" stroke-width="20.625" stroke-miterlimit="8" fill="none" fill-rule="evenodd"/><path d="M1085.5 1828 1125.25 1828 1125.25 1408.5 1204.75 1408.5 1204.75 1828 1244.5 1828 1165 1907.5Z" stroke="#000000" stroke-width="20.625" stroke-miterlimit="8" fill="#BBDD84" fill-rule="evenodd"/><path d="M1599.5 1828 1639.25 1828 1639.25 1408.5 1718.75 1408.5 1718.75 1828 1758.5 1828 1679 1907.5Z" stroke="#000000" stroke-width="20.625" stroke-miterlimit="8" fill="#C6B3D7" fill-rule="evenodd"/><path d="M2649.5 1818.5 2689.5 1818.5 2689.5 1399.5 2769.5 1399.5 2769.5 1818.5 2809.5 1818.5 2729.5 1898.5Z" stroke="#000000" stroke-width="20.625" stroke-miterlimit="8" fill="#B0CDE4" fill-rule="evenodd"/><path d="M3165.5 1819.5 3205.5 1819.5 3205.5 1400.5 3285.5 1400.5 3285.5 1819.5 3325.5 1819.5 3245.5 1899.5Z" stroke="#000000" stroke-width="20.625" stroke-miterlimit="8" fill="#FDFF92" fill-rule="evenodd"/><text font-family="Arial,Arial_MSFontService,sans-serif" font-weight="400" font-size="183" transform="matrix(1 0 0 1 2626.9 1300)">b1</text><text font-family="Arial,Arial_MSFontService,sans-serif" font-weight="400" font-size="183" transform="matrix(1 0 0 1 3141.62 1300)">b2</text><text font-family="Arial,Arial_MSFontService,sans-serif" font-weight="400" font-size="183" transform="matrix(1 0 0 1 1060.59 1308)">a1</text><text font-family="Arial,Arial_MSFontService,sans-serif" font-weight="400" font-size="183" transform="matrix(1 0 0 1 1581.9 1308)">a2</text><text font-family="Arial,Arial_MSFontService,sans-serif" font-style="italic" font-weight="400" font-size="73" transform="matrix(1 0 0 1 1040.54 1022)">p</text><text font-family="Arial,Arial_MSFontService,sans-serif" font-weight="400" font-size="73" transform="matrix(1 0 0 1 1101.84 1022)">= 0.2</text><text font-family="Arial,Arial_MSFontService,sans-serif" font-style="italic" font-weight="400" font-size="73" transform="matrix(1 0 0 1 1572.85 1020)">p</text><text font-family="Arial,Arial_MSFontService,sans-serif" font-weight="400" font-size="73" transform="matrix(1 0 0 1 1634.16 1020)">= 0.8</text><text font-family="Arial,Arial_MSFontService,sans-serif" font-style="italic" font-weight="400" font-size="73" transform="matrix(1 0 0 1 2575.9 1015)">p</text><text font-family="Arial,Arial_MSFontService,sans-serif" font-weight="400" font-size="73" transform="matrix(1 0 0 1 2637.2 1015)">= 0.2</text><text font-family="Arial,Arial_MSFontService,sans-serif" font-style="italic" font-weight="400" font-size="73" transform="matrix(1 0 0 1 3108.21 1014)">p</text><text font-family="Arial,Arial_MSFontService,sans-serif" font-weight="400" font-size="73" transform="matrix(1 0 0 1 3169.52 1014)">= 0.8</text><rect x="3072.5" y="1962.5" width="356" height="211" stroke="#000000" stroke-width="20.625" stroke-miterlimit="8" fill="#FFFFFF"/><text font-family="Arial,Arial_MSFontService,sans-serif" font-weight="400" font-size="73" transform="matrix(1 0 0 1 3166.63 2049)">Food</text><text font-family="Arial,Arial_MSFontService,sans-serif" font-style="italic" font-weight="400" font-size="73" transform="matrix(1 0 0 1 3136.57 2137)">p</text><text font-family="Arial,Arial_MSFontService,sans-serif" font-weight="400" font-size="73" transform="matrix(1 0 0 1 3197.87 2137)">= 0.5</text><rect x="2554.5" y="1961.5" width="355" height="211" stroke="#000000" stroke-width="20.625" stroke-miterlimit="8" fill="#FFFFFF"/><text font-family="Arial,Arial_MSFontService,sans-serif" font-weight="400" font-size="73" transform="matrix(1 0 0 1 2647.81 2049)">Food</text><text font-family="Arial,Arial_MSFontService,sans-serif" font-style="italic" font-weight="400" font-size="73" transform="matrix(1 0 0 1 2617.74 2137)">p</text><text font-family="Arial,Arial_MSFontService,sans-serif" font-weight="400" font-size="73" transform="matrix(1 0 0 1 2679.04 2137)">= 0.5</text><path d="M1599 1775C1577.18 1775 1559.5 1772.05 1559.5 1768.42L1559.5 1612.58C1559.5 1608.95 1541.82 1606 1520 1606 1541.82 1606 1559.5 1603.05 1559.5 1599.42L1559.5 1443.58C1559.5 1439.95 1577.18 1437 1599 1437" stroke="#000000" stroke-width="10.3125" stroke-miterlimit="8" fill="none" fill-rule="evenodd"/><path d="M1235 1437C1256.82 1437 1274.5 1439.95 1274.5 1443.58L1274.5 1599.42C1274.5 1603.05 1292.18 1606 1314 1606 1292.18 1606 1274.5 1608.95 1274.5 1612.58L1274.5 1768.42C1274.5 1772.05 1256.82 1775 1235 1775" stroke="#000000" stroke-width="10.3125" stroke-miterlimit="8" fill="none" fill-rule="evenodd"/><text font-family="Arial,Arial_MSFontService,sans-serif" font-weight="400" font-size="73" transform="matrix(1 0 0 1 1325.25 1634)">Delay</text><path d="M3174 1766C3152.19 1766 3134.5 1763.05 3134.5 1759.42L3134.5 1603.58C3134.5 1599.95 3116.82 1597 3095 1597 3116.82 1597 3134.5 1594.05 3134.5 1590.42L3134.5 1434.58C3134.5 1430.95 3152.19 1428 3174 1428" stroke="#000000" stroke-width="10.3125" stroke-miterlimit="8" fill="none" fill-rule="evenodd"/><path d="M2811 1427C2832.82 1427 2850.5 1429.95 2850.5 1433.58L2850.5 1589.92C2850.5 1593.55 2868.18 1596.5 2890 1596.5 2868.18 1596.5 2850.5 1599.45 2850.5 1603.08L2850.5 1759.42C2850.5 1763.05 2832.82 1766 2811 1766" stroke="#000000" stroke-width="10.3125" stroke-miterlimit="8" fill="none" fill-rule="evenodd"/><text font-family="Arial,Arial_MSFontService,sans-serif" font-weight="400" font-size="73" transform="matrix(1 0 0 1 2900.98 1625)">Delay</text><rect x="982.5" y="1961.5" width="355" height="122" stroke="#000000" stroke-width="20.625" stroke-miterlimit="8" fill="#FFFFFF"/><text font-family="Arial,Arial_MSFontService,sans-serif" font-weight="400" font-size="73" transform="matrix(1 0 0 1 1076.04 2049)">Food</text><rect x="1500.5" y="1963.5" width="355" height="122" stroke="#000000" stroke-width="20.625" stroke-miterlimit="8" fill="#D9D9D9"/><text font-family="Arial,Arial_MSFontService,sans-serif" font-weight="400" font-size="73" transform="matrix(1 0 0 1 1537.34 2050)">No Food</text><text font-family="Arial,Arial_MSFontService,sans-serif" font-weight="400" font-size="83" transform="matrix(-1.83697e-16 -1 1 -1.83697e-16 692.621 1754)">Terminal links:</text><text font-family="Arial,Arial_MSFontService,sans-serif" font-weight="400" font-size="83" transform="matrix(-1.83697e-16 -1 1 -1.83697e-16 791.621 1620)">FT 10s</text><path d="M901.952 1907C880.15 1907 862.475 1904.05 862.475 1900.42L862.476 1499.08C862.476 1495.45 844.802 1492.5 823 1492.5 844.802 1492.5 862.476 1489.55 862.476 1485.92L862.476 1084.58C862.476 1080.95 880.151 1078 901.953 1078" stroke="#000000" stroke-width="10.3125" stroke-miterlimit="8" fill="none" fill-rule="evenodd"/><text font-family="Arial,Arial_MSFontService,sans-serif" font-weight="400" font-size="83" transform="matrix(-1.83697e-16 -1 1 -1.83697e-16 691.658 884)">Initial link:</text><text font-family="Arial,Arial_MSFontService,sans-serif" font-weight="400" font-size="83" transform="matrix(-1.83697e-16 -1 1 -1.83697e-16 790.658 793)">FR 1</text><path d="M902 882C880.185 882 862.5 879.053 862.5 875.417L862.5 719.083C862.5 715.448 844.815 712.5 823 712.5 844.815 712.5 862.5 709.553 862.5 705.917L862.5 549.583C862.5 545.948 880.185 543 902 543" stroke="#000000" stroke-width="10.3125" stroke-miterlimit="8" fill="none" fill-rule="evenodd"/><text font-family="Arial,Arial_MSFontService,sans-serif" font-weight="400" font-size="83" transform="matrix(6.12323e-17 1 -1 6.12323e-17 3717.07 1217)">Terminal links:</text><text font-family="Arial,Arial_MSFontService,sans-serif" font-weight="400" font-size="83" transform="matrix(6.12323e-17 1 -1 6.12323e-17 3618.07 1351)">FT 10s</text><path d="M78.952 829C57.1498 829 39.4756 826.055 39.4756 822.421L39.4765 421.079C39.4765 417.446 21.8022 414.5-6.59645e-15 414.5 21.8022 414.5 39.4765 411.554 39.4765 407.921L39.4765 6.57924C39.4765 2.94562 57.1507-1.64911e-15 78.9529-3.29821e-15" stroke="#000000" stroke-width="10.3125" stroke-miterlimit="8" fill="none" fill-rule="evenodd" transform="matrix(-1 0 0 1 3586 1064)"/><text font-family="Arial,Arial_MSFontService,sans-serif" font-weight="400" font-size="83" transform="matrix(6.12323e-17 1 -1 6.12323e-17 3716.82 517)">Initial link:</text><text font-family="Arial,Arial_MSFontService,sans-serif" font-weight="400" font-size="83" transform="matrix(6.12323e-17 1 -1 6.12323e-17 3617.82 609)">FR 1</text><path d="M79.0001 338C57.1848 338 39.5 335.053 39.5 331.417L39.5 175.583C39.5 171.947 21.8153 169-5.37901e-15 169 21.8153 169 39.5 166.053 39.5 162.417L39.5 6.58294C39.5 2.94728 57.1848-2.68949e-15 79.0001-4.03424e-15" stroke="#000000" stroke-width="10.3125" stroke-miterlimit="8" fill="none" fill-rule="evenodd" transform="matrix(-1 0 0 1 3585 530)"/><text font-family="Arial,Arial_MSFontService,sans-serif" font-weight="400" font-size="83" transform="matrix(1 0 0 1 1209.15 453)">Suboptimal</text><text font-family="Arial,Arial_MSFontService,sans-serif" font-weight="400" font-size="83" transform="matrix(1 0 0 1 2827.89 453)">Optimal</text></g></svg>